<svg xmlns="http://www.w3.org/2000/svg"  viewBox="0 0 48 48" width="48px" height="48px"><path fill="#ef4823" d="M4.59,26.368c-0.022,2.908-0.144,6.516-0.02,9.422c0.076,1.788,0.207,3.174,0.384,4.955 c0.05,0.503,0.112,1.029,0.4,1.444c0.514,0.742,1.538,0.877,2.44,0.925c4.135,0.221,8.291,0.041,12.391-0.537 c0.524-0.074,1.051-0.154,1.579-0.121c0.549,0.035,1.082,0.191,1.62,0.308c1.019,0.221,2.062,0.299,3.101,0.376 c2.648,0.197,5.469,0.285,8.122,0.16c2.586-0.341,5.376-0.498,7.972-0.249c0.144,0.014,0.301,0.026,0.423-0.052 c0.202-0.128,0.204-0.416,0.184-0.655c-0.138-1.698-0.153-3.007-0.045-4.707c0.082-1.282,0.233-2.562,0.225-3.847 c-0.009-1.322-0.187-2.636-0.335-3.95C42.28,23.135,42.337,15.34,43.2,8.649c0.085-0.658,0.177-1.327,0.073-1.982 s-0.441-1.308-1.022-1.629c-0.347-0.191-0.75-0.25-1.144-0.291c-0.915-0.096-1.832-0.215-2.751-0.161 c-2.182,0.447-4.424,0.321-6.651,0.29c-7.975-0.11-14.95-0.22-22.926-0.33c-0.928-0.013-1.983,0.028-2.59,0.73 C5.643,5.908,5.673,6.838,5.722,7.672C6.055,13.33,4.773,20.703,4.59,26.368z"/><path fill="#373837" d="M9.583,21.847c-0.301,2.957-0.67,5.654-0.729,8.625c2.407-1.081,5.16-1.537,7.776-1.88 c-0.054-1.655-0.108-3.311-0.162-4.966c-0.851-0.365-1.709-0.733-2.617-0.92c-1.466-0.302-3.081-0.144-4.358-0.924"/><path fill="#373837" d="M18.577,23.762c-0.017,1.722,0.009,3.226-0.008,4.948c0.62-0.04,1.239-0.081,1.859-0.121 c0.141-0.009,0.289-0.021,0.406-0.098c0.222-0.146,0.247-0.456,0.247-0.722c-0.002-1.314-0.084-2.627-0.243-3.931 c-0.009-0.076-0.021-0.157-0.07-0.217c-0.08-0.097-0.225-0.1-0.351-0.091C19.771,23.576,19.175,23.511,18.577,23.762z"/><path fill="#373837" d="M24.928,23.674c-0.597,0.306-0.996,0.908-1.439,1.412c-0.083,0.095-0.171,0.201-0.174,0.327 c-0.002,0.099,0.049,0.191,0.102,0.275c0.389,0.632,0.895,1.192,1.483,1.644c0.425-0.484,0.85-0.968,1.275-1.453 c0.119-0.136,0.246-0.295,0.224-0.474c-0.011-0.087-0.057-0.166-0.104-0.241C25.918,24.562,25.491,24.11,24.928,23.674z"/><path fill="#373837" d="M29.044,26.961c-1.094,0.886-2.076,1.849-3.085,2.831c-0.133,0.129-0.274,0.28-0.274,0.465 c0,0.111,0.053,0.215,0.107,0.312c0.266,0.471,0.614,0.894,1.026,1.245c0.057,0.049,0.12,0.098,0.195,0.104 c0.106,0.009,0.197-0.07,0.274-0.143c1.116-1.065,2.231-2.13,3.347-3.195c0.039-0.037,0.078-0.075,0.1-0.124 c0.068-0.154-0.069-0.317-0.196-0.427C30.056,27.612,29.601,27.272,29.044,26.961z"/><path fill="#373837" d="M28.153,33.64c1.231-1.155,2.462-2.364,3.694-3.52c0.096-0.09,0.199-0.183,0.327-0.208 c0.144-0.027,0.288,0.038,0.42,0.103c1.788,0.878,3.485,1.94,5.056,3.165c0.072,0.056,0.146,0.115,0.191,0.194 c0.179,0.315-0.177,0.658-0.482,0.854c-2.015,1.298-3.787,2.972-5.199,4.908C30.892,37.495,29.42,35.282,28.153,33.64z"/><path fill="#373837" d="M21.273,9.71c0.31,1.992,0.563,4.098,1.049,6.054c0.11,0.442,0.332,0.976,0.787,0.994 c1.678,0.065,3.35,0.279,4.99,0.64c0.472-2.45,1.986-4.684,1.997-7.179c0-0.091-0.004-0.189-0.059-0.26 c-0.068-0.088-0.189-0.109-0.299-0.123c-0.741-0.098-1.482-0.096-2.224-0.194c-0.34-0.045-0.694-0.089-1.02,0.019 c-0.553,0.182-1.15,0.063-1.732,0.043C23.647,9.663,22.388,9.75,21.273,9.71z"/><path fill="#373837" d="M22.953,18.914c-0.025,0.841-0.051,1.681-0.076,2.522c0.714-0.068,1.433-0.076,2.15-0.084 c0.866-0.009,1.731-0.019,2.597-0.045c0.056-0.002,0.115-0.005,0.16-0.037c0.066-0.048,0.078-0.141,0.083-0.223 c0.024-0.371,0.048-0.743,0.072-1.114c0.009-0.145,0.019-0.292-0.014-0.434c-0.092-0.4-0.497-0.659-0.899-0.742 c-0.402-0.083-0.819-0.034-1.229-0.056C25.018,18.66,23.697,18.677,22.953,18.914z"/><path d="M43.819,32.625c-0.18-2.611-0.559-5.198-0.692-7.815c-0.264-5.206-0.124-10.453,0.505-15.63 c0.14-1.149,0.381-2.37-0.136-3.463c-0.474-1.002-1.346-1.348-2.39-1.47c-0.684-0.08-1.373-0.158-2.062-0.172 c-0.716-0.014-1.39,0.15-2.099,0.226c-1.343,0.144-2.698,0.123-4.047,0.097C27.353,4.292,21.806,4.234,16.26,4.153 c-2.688-0.039-5.416-0.217-8.102-0.1C7.204,4.094,6.204,4.333,5.641,5.175C5.041,6.073,5.21,7.228,5.25,8.244 c0.194,4.929-0.56,9.853-0.957,14.754c-0.091,1.122-0.164,2.245-0.203,3.37c-0.021,2.521-0.099,5.042-0.068,7.563 c0.015,1.267,0.067,2.533,0.16,3.797c0.09,1.23,0.138,2.504,0.362,3.718c0.455,2.456,3.41,2.204,5.318,2.244 c2.8,0.059,5.605-0.065,8.389-0.371c1.425-0.157,2.885-0.542,4.309-0.232c1.306,0.283,2.591,0.455,3.925,0.553 c2.744,0.202,5.619,0.423,8.362,0.129c1.216-0.131,2.425-0.216,3.648-0.227c0.602-0.006,1.203-0.001,1.805,0.003 c0.604,0.004,1.283,0.091,1.874-0.071c0.678-0.187,1.162-0.735,1.383-1.387c0.237-0.7,0.063-1.436,0.03-2.156 C43.473,37.489,43.988,35.069,43.819,32.625z M42.379,28.341c0.232,2.516,0.59,4.96,0.4,7.493c-0.084,1.12-0.2,2.243-0.208,3.367 c-0.005,0.74,0.199,1.551,0.11,2.279c-0.093,0.761-0.625,1.066-1.344,1.07c-1.153,0.006-2.305-0.026-3.457,0.001 c-1.215,0.028-2.415,0.215-3.625,0.264c-1.317,0.053-2.635,0.054-3.952,0.02c-1.274-0.033-2.547-0.101-3.818-0.195 c-1.328-0.098-2.587-0.313-3.89-0.567c-1.261-0.246-2.482,0.026-3.739,0.177c-1.29,0.154-2.584,0.269-3.881,0.345 c-2.525,0.148-5.179,0.28-7.697-0.021c-0.467-0.056-0.999-0.156-1.355-0.488c-0.423-0.394-0.439-1.045-0.492-1.582 c-0.121-1.219-0.234-2.438-0.307-3.661c-0.14-2.362-0.116-4.728-0.08-7.092c0.017-1.128,0.038-2.255,0.047-3.383 c0.156-4.566,0.839-9.096,1.094-13.657c0.061-1.096,0.099-2.195,0.092-3.293C6.269,8.39,6.003,7.155,6.29,6.157 C6.634,4.958,8.02,5.036,9.028,5.049c1.302,0.017,2.603,0.036,3.905,0.055c5.113,0.073,10.227,0.151,15.34,0.224 c2.566,0.037,5.162,0.192,7.725,0.048c1.298-0.073,2.544-0.363,3.849-0.256c1.16,0.094,2.536,0.052,2.886,1.413 c0.291,1.135-0.086,2.468-0.211,3.612c-0.128,1.173-0.229,2.349-0.307,3.527c-0.164,2.462-0.229,4.93-0.201,7.397 C42.04,23.496,42.156,25.923,42.379,28.341z"/><path d="M16.72,23.195c-1.17-0.502-2.317-0.944-3.588-1.104c-1.148-0.145-2.359-0.14-3.387-0.74c-0.471-0.275-0.898,0.3-0.682,0.68 c-0.291,2.81-0.647,5.614-0.71,8.441c-0.009,0.413,0.424,0.577,0.752,0.432c2.37-1.05,4.972-1.476,7.524-1.812 c0.261-0.034,0.51-0.201,0.5-0.5c-0.054-1.655-0.108-3.311-0.162-4.966C16.962,23.466,16.88,23.263,16.72,23.195z M15.979,23.963 c0.046,1.4,0.091,2.8,0.137,4.2c-2.29,0.314-4.57,0.724-6.728,1.557c0.095-2.393,0.366-4.773,0.618-7.154 c0.81,0.289,1.678,0.372,2.542,0.46C13.766,23.15,14.862,23.499,15.979,23.963z"/><path d="M21.53,26.001c-0.027-0.488-0.065-0.975-0.114-1.461c-0.044-0.435-0.001-1.068-0.39-1.353 c-0.342-0.251-0.842-0.146-1.24-0.132c-0.456,0.016-0.914,0.056-1.341,0.225c-0.064,0.025-0.122,0.059-0.173,0.101 c-0.081,0.058-0.137,0.143-0.166,0.252c-0.01,0.031-0.018,0.062-0.02,0.096c-0.001,0.012-0.007,0.02-0.007,0.033 c-0.015,1.649,0.007,3.299-0.008,4.948c-0.002,0.257,0.231,0.518,0.5,0.5c0.516-0.034,1.033-0.067,1.549-0.101 c0.461-0.03,0.951-0.033,1.243-0.452c0.242-0.348,0.222-0.787,0.218-1.192C21.574,26.977,21.557,26.488,21.53,26.001z M20.539,28.104c0.044-0.044-0.126-0.015-0.163-0.012c-0.189,0.013-0.379,0.025-0.568,0.037c-0.246,0.016-0.492,0.032-0.738,0.048 c0.007-1.346-0.002-2.692,0.007-4.038c0.188-0.042,0.378-0.071,0.577-0.08c0.163-0.007,0.326-0.01,0.489-0.016 c0.066-0.003,0.132-0.007,0.197-0.01c0.015,0.131,0.055,0.307,0.06,0.356c0.019,0.184,0.037,0.369,0.053,0.553 c0.034,0.386,0.061,0.772,0.082,1.159c0.019,0.37,0.033,0.74,0.04,1.111c0.003,0.185,0.008,0.371,0.006,0.556 C20.58,27.836,20.598,28.044,20.539,28.104z"/><path d="M26.199,26.611c0.332-0.378,0.817-0.802,0.678-1.363c-0.1-0.4-0.444-0.785-0.706-1.091 c-0.265-0.311-0.568-0.585-0.889-0.836c-0.008-0.006-0.018-0.009-0.027-0.016c-0.083-0.072-0.184-0.109-0.292-0.116 c-0.022-0.002-0.042-0.004-0.064-0.004c-0.028,0.002-0.055,0.007-0.083,0.013c-0.037,0.007-0.072,0.017-0.107,0.034 c-0.011,0.005-0.023,0.005-0.033,0.01c-0.405,0.215-0.738,0.54-1.033,0.886c-0.146,0.171-0.285,0.347-0.431,0.517 c-0.182,0.213-0.37,0.421-0.389,0.715c-0.032,0.491,0.416,0.979,0.708,1.336c0.3,0.368,0.643,0.698,1.018,0.99 c0.202,0.157,0.511,0.223,0.707,0C25.569,27.328,25.884,26.969,26.199,26.611z M24.397,26.179c-0.12-0.136-0.225-0.265-0.325-0.407 c-0.054-0.076-0.106-0.152-0.156-0.23c-0.019-0.029-0.041-0.079-0.066-0.11c0.004-0.004,0.011-0.012,0.013-0.013 c0.057-0.066,0.113-0.132,0.169-0.199c0.119-0.143,0.235-0.288,0.357-0.428c0.121-0.139,0.246-0.275,0.382-0.399 c0.037-0.034,0.073-0.06,0.109-0.088c0.152,0.133,0.312,0.258,0.449,0.407c0.094,0.102,0.213,0.241,0.278,0.329 c0.096,0.128,0.174,0.282,0.272,0.408c-0.034,0.043-0.064,0.089-0.102,0.133c-0.134,0.153-0.268,0.305-0.401,0.457 c-0.169,0.193-0.339,0.386-0.508,0.579C24.708,26.472,24.539,26.339,24.397,26.179z"/><path d="M28.368,31.435c0.825-0.787,1.649-1.574,2.474-2.361c0.255-0.244,0.478-0.502,0.387-0.882 c-0.064-0.269-0.273-0.462-0.475-0.632c-0.457-0.385-0.938-0.736-1.458-1.029c-0.011-0.006-0.022-0.005-0.033-0.011 c-0.035-0.017-0.07-0.027-0.106-0.034c-0.035-0.008-0.069-0.017-0.103-0.017c-0.013,0-0.025,0.003-0.037,0.005 c-0.051,0.004-0.1,0.012-0.145,0.032c-0.064,0.024-0.126,0.058-0.182,0.104c-0.849,0.691-1.647,1.438-2.433,2.198 c-0.183,0.177-0.365,0.355-0.548,0.532c-0.199,0.193-0.408,0.397-0.486,0.672c-0.154,0.545,0.277,1.078,0.594,1.48 c0.276,0.351,0.71,0.917,1.196,0.928c0.289,0.007,0.503-0.173,0.7-0.359C27.933,31.852,28.15,31.643,28.368,31.435z M27.124,31.419 C27.161,31.437,27.178,31.47,27.124,31.419L27.124,31.419z M27.04,31.342c-0.03-0.027-0.06-0.055-0.089-0.083 c-0.082-0.079-0.16-0.162-0.236-0.247c-0.152-0.171-0.285-0.354-0.404-0.549c-0.03-0.049-0.118-0.247-0.127-0.191 c-0.001,0.004,0.126-0.125,0.163-0.161c0.205-0.201,0.411-0.4,0.617-0.599c0.689-0.666,1.393-1.316,2.127-1.933 c0.321,0.2,0.632,0.414,0.923,0.657c0.005,0.004,0.069,0.064,0.132,0.12c-0.04,0.039-0.082,0.078-0.119,0.113 c-0.218,0.208-0.437,0.417-0.655,0.625c-0.424,0.405-0.849,0.81-1.273,1.215c-0.206,0.197-0.412,0.394-0.618,0.59 C27.345,31.03,27.199,31.209,27.04,31.342z"/><path d="M37.343,32.324c-0.612-0.453-1.242-0.883-1.887-1.287c-0.646-0.404-1.307-0.783-1.982-1.135 c-0.532-0.278-1.138-0.701-1.727-0.339c-0.349,0.214-0.643,0.57-0.938,0.85c-0.32,0.305-0.639,0.61-0.958,0.916 c-0.682,0.654-1.363,1.31-2.052,1.957c-0.019,0.018-0.025,0.038-0.04,0.057c-0.143,0.137-0.199,0.34-0.038,0.549 c1.382,1.798,2.625,3.699,4.007,5.497c0.24,0.312,0.625,0.324,0.863,0c0.83-1.129,1.785-2.164,2.839-3.087 c0.542-0.475,1.11-0.917,1.704-1.325c0.478-0.328,1.149-0.657,1.24-1.298C38.468,33.02,37.796,32.659,37.343,32.324z M36.97,33.886 c-0.135,0.091-0.272,0.181-0.406,0.274c-0.617,0.427-1.211,0.889-1.778,1.381c-0.964,0.837-1.814,1.784-2.601,2.785 c-1.142-1.529-2.221-3.103-3.372-4.625c0.538-0.509,1.074-1.02,1.608-1.533c0.319-0.306,0.638-0.612,0.958-0.917 c0.206-0.197,0.666-0.796,0.962-0.803c0.125-0.003,0.35,0.175,0.471,0.237c0.208,0.107,0.416,0.217,0.621,0.329 c0.36,0.196,0.716,0.4,1.068,0.611c0.678,0.407,1.339,0.842,1.982,1.304c0.105,0.075,0.941,0.602,0.919,0.694 C37.408,33.599,37.015,33.856,36.97,33.886z"/><path d="M24.45,17.342c1.183,0.102,2.356,0.287,3.516,0.538c0.25,0.054,0.559-0.073,0.615-0.349 c0.289-1.434,0.897-2.764,1.376-4.138c0.228-0.654,0.426-1.321,0.535-2.007c0.087-0.553,0.318-1.513-0.236-1.887 c-0.289-0.196-0.695-0.188-1.032-0.217c-0.399-0.034-0.799-0.051-1.197-0.085c-0.365-0.032-0.735-0.112-1.102-0.102 c-0.36,0.009-0.691,0.148-1.049,0.165c-0.732,0.035-1.477-0.073-2.213-0.064c-0.797,0.01-1.593,0.039-2.39,0.015 c-0.288-0.009-0.44,0.188-0.47,0.409C20.801,9.626,20.801,9.633,20.8,9.64c-0.003,0.03-0.005,0.058-0.004,0.088 c-0.002,0.038-0.011,0.074-0.005,0.115c0.178,1.151,0.335,2.305,0.526,3.454c0.169,1.013,0.279,2.166,0.7,3.111 c0.157,0.353,0.416,0.686,0.801,0.801C23.318,17.359,23.928,17.297,24.45,17.342z M21.848,10.217 c1.185,0.01,2.367-0.043,3.552,0.029c0.675,0.041,1.302-0.194,1.968-0.122c0.703,0.075,1.411,0.103,2.113,0.183 c0.036,0.003,0.071,0.01,0.107,0.014c-0.044,0.116-0.011,0.379-0.022,0.493c-0.029,0.299-0.084,0.594-0.15,0.887 c-0.143,0.631-0.352,1.245-0.575,1.851c-0.398,1.081-0.835,2.15-1.112,3.268c-0.837-0.167-1.678-0.307-2.526-0.403 c-0.528-0.06-1.058-0.105-1.589-0.135c-0.181-0.01-0.419,0.036-0.563-0.079c-0.132-0.105-0.189-0.364-0.23-0.515 C22.33,13.906,22.113,12.047,21.848,10.217z"/><path d="M25.826,21.843c0.516-0.007,1.032-0.015,1.548-0.029c0.213-0.006,0.445,0.008,0.638-0.101 c0.238-0.135,0.327-0.375,0.352-0.635c0.042-0.446,0.091-0.915,0.083-1.363c-0.008-0.472-0.225-0.86-0.603-1.137 c-0.36-0.263-0.802-0.349-1.24-0.367c-0.419-0.017-0.841-0.017-1.26-0.025c-0.832-0.015-1.723,0-2.524,0.246 c-0.124,0.038-0.204,0.113-0.261,0.199c-0.058,0.075-0.102,0.165-0.106,0.284c-0.025,0.841-0.051,1.681-0.076,2.522 c-0.008,0.252,0.236,0.524,0.5,0.5C23.857,21.846,24.843,21.855,25.826,21.843z M24.828,19.187 c0.293-0.005,0.586-0.001,0.879,0.011c0.362,0.016,0.734-0.02,1.093,0.026c0.215,0.027,0.521,0.117,0.62,0.335 c0.062,0.136,0.022,0.324,0.012,0.468c-0.013,0.201-0.026,0.402-0.039,0.603c-0.004,0.059-0.008,0.118-0.011,0.177 c-0.039,0.005-0.081,0.01-0.108,0.011c-0.117,0.003-0.233,0.006-0.349,0.008c-0.416,0.009-0.832,0.015-1.248,0.02 c-0.761,0.009-1.523,0.019-2.283,0.064c0.016-0.527,0.032-1.054,0.048-1.58C23.897,19.235,24.365,19.195,24.828,19.187z"/></svg>