<?xml version="1.0" encoding="utf-8"?><svg version="1.1" id="Layer_1" xmlns="http://www.w3.org/2000/svg" xmlns:xlink="http://www.w3.org/1999/xlink" x="0px" y="0px" viewBox="0 0 122.88 122.88" style="enable-background:new 0 0 122.88 122.88" xml:space="preserve"><style type="text/css">.st0{fill:#32373C;}</style><g><path class="st0" d="M61.44,0C27.51,0,0,27.51,0,61.44c0,33.93,27.51,61.44,61.44,61.44c33.93,0,61.44-27.51,61.44-61.44 C122.88,27.51,95.37,0,61.44,0L61.44,0z M106.37,36.88c0.22,1.63,0.34,3.38,0.34,5.26c0,5.19-0.97,11.03-3.89,18.34l-15.64,45.21 c15.22-8.87,25.46-25.37,25.46-44.25C112.64,52.54,110.37,44.17,106.37,36.88L106.37,36.88z M62.34,65.92l-15.36,44.64 c4.59,1.35,9.44,2.09,14.46,2.09c5.96,0,11.68-1.03,17-2.9c-0.14-0.22-0.26-0.45-0.37-0.71L62.34,65.92L62.34,65.92z M96,58.86 c0-6.33-2.27-10.71-4.22-14.12c-2.6-4.22-5.03-7.79-5.03-12.01c0-4.71,3.57-9.09,8.6-9.09c0.23,0,0.44,0.03,0.66,0.04 c-9.11-8.35-21.25-13.44-34.57-13.44c-17.89,0-33.62,9.18-42.78,23.08c1.2,0.04,2.33,0.06,3.3,0.06c5.35,0,13.65-0.65,13.65-0.65 c2.76-0.16,3.08,3.89,0.33,4.22c0,0-2.77,0.32-5.86,0.49l18.64,55.46l11.21-33.6l-7.98-21.86c-2.76-0.16-5.37-0.49-5.37-0.49 c-2.76-0.16-2.44-4.38,0.32-4.22c0,0,8.45,0.65,13.48,0.65c5.35,0,13.65-0.65,13.65-0.65c2.76-0.16,3.08,3.89,0.33,4.22 c0,0-2.78,0.32-5.86,0.49L87,92.47l5.28-16.74C94.63,68.42,96,63.24,96,58.86L96,58.86z M10.24,61.44 c0,20.27,11.78,37.78,28.86,46.08L14.67,40.6C11.83,46.97,10.24,54.01,10.24,61.44L10.24,61.44z M61.44,3.69 c7.8,0,15.36,1.53,22.48,4.54c3.42,1.45,6.72,3.24,9.81,5.32c3.06,2.07,5.94,4.44,8.55,7.05c2.61,2.61,4.99,5.49,7.05,8.55 c2.09,3.09,3.88,6.39,5.32,9.81c3.01,7.12,4.54,14.68,4.54,22.48c0,7.8-1.53,15.36-4.54,22.48c-1.45,3.42-3.24,6.72-5.32,9.81 c-2.07,3.06-4.44,5.94-7.05,8.55c-2.61,2.61-5.49,4.99-8.55,7.05c-3.09,2.09-6.39,3.88-9.81,5.32c-7.12,3.01-14.68,4.54-22.48,4.54 c-7.8,0-15.36-1.53-22.48-4.54c-3.42-1.45-6.72-3.24-9.81-5.32c-3.06-2.07-5.94-4.44-8.55-7.05c-2.61-2.61-4.99-5.49-7.05-8.55 c-2.09-3.09-3.88-6.39-5.32-9.81C5.21,76.8,3.69,69.24,3.69,61.44c0-7.8,1.53-15.36,4.54-22.48c1.45-3.42,3.24-6.72,5.32-9.81 c2.07-3.06,4.44-5.94,7.05-8.55c2.61-2.61,5.49-4.99,8.55-7.05c3.09-2.09,6.39-3.88,9.81-5.32C46.08,5.21,53.64,3.69,61.44,3.69 L61.44,3.69z"/></g></svg>