<?xml version="1.0" encoding="iso-8859-1"?>
<!-- Generator: Adobe Illustrator 19.0.0, SVG Export Plug-In . SVG Version: 6.00 Build 0)  -->
<svg version="1.1" id="Layer_1" xmlns="http://www.w3.org/2000/svg" xmlns:xlink="http://www.w3.org/1999/xlink" x="0px" y="0px"
	 viewBox="0 0 512 512" style="enable-background:new 0 0 512 512;" xml:space="preserve">
<circle style="fill:#263A7A;" cx="256" cy="256" r="256"/>
<path style="fill:#121149;" d="M394.862,147.932l-269.905,95.113l118.444,74.726l-72.735,80.451l112.359,112.359
	c125.78-13.198,224.422-117.474,228.804-245.682L394.862,147.932z"/>
<path style="fill:#71E2EF;" d="M348.444,256c35.347,0,64-28.653,64-64s-28.653-64-64-64c-3.972,0-7.852,0.381-11.623,1.072
	C325.411,95.375,293.55,71.111,256,71.111s-69.411,24.264-80.822,57.961c-3.772-0.693-7.651-1.072-11.623-1.072
	c-35.347,0-64,28.653-64,64s28.653,64,64,64H348.444z"/>
<path style="fill:#38C6D9;" d="M348.444,128c-3.972,0-7.852,0.381-11.623,1.072C325.411,95.375,293.55,71.111,256,71.111
	c-0.578,0-1.15,0.024-1.724,0.034V256h94.168c35.347,0,64-28.653,64-64S383.791,128,348.444,128z"/>
<rect x="170.667" y="284.444" style="fill:#FEE187;" width="170.667" height="113.778"/>
<g>
	<rect x="254.276" y="284.444" style="fill:#FFC61B;" width="87.057" height="113.778"/>
	<polygon style="fill:#FFC61B;" points="341.333,284.444 256,341.333 170.667,284.444 	"/>
</g>
<polygon style="fill:#D48B07;" points="341.333,284.444 254.276,284.444 254.276,340.185 256,341.333 "/>
<g>
</g>
<g>
</g>
<g>
</g>
<g>
</g>
<g>
</g>
<g>
</g>
<g>
</g>
<g>
</g>
<g>
</g>
<g>
</g>
<g>
</g>
<g>
</g>
<g>
</g>
<g>
</g>
<g>
</g>
</svg>
